<svg data-v-10f38804="" version="1.0" xmlns="http://www.w3.org/2000/svg" xmlns:xlink="http://www.w3.org/1999/xlink" width="100%" height="100%" viewBox="0 0 255.000000 55.000000" preserveAspectRatio="xMidYMid meet" color-interpolation-filters="sRGB" class="el-tooltip" style="margin: auto;"><rect data-v-10f38804="" x="0" y="0" width="100%" height="100%" fill="transparent" fill-opacity="1"></rect> <rect data-v-10f38804="" x="0" y="0" width="100%" height="100%" fill="url(#watermark)" fill-opacity="1" class="watermarklayer"></rect> <g data-v-10f38804="" fill="#333" class="newinitialsvg-g newinitialsvg" transform="translate(60,10)"><g class="tp-name" transform="translate(0,0)"><g transform="translate(0, 0)"><g fill="#333" transform="translate(0,3)"><path d="M19.34-26.37L19.34-26.37Q18.98-26.02 18.46-25.84L18.46-25.84Q17.58-25.49 17.23-24.96L17.23-24.96Q17.05-24.61 16.88-23.91L16.88-23.91Q16.70-23.20 16.35-22.85L16.35-22.85L16.17-22.85Q16.00-22.85 15.64-23.20L15.64-23.20Q13.89-25.49 11.60-25.49L11.60-25.49Q7.03-25.14 6.86-22.15L6.86-22.15Q6.86-19.51 12.13-18.11L12.13-18.11Q20.74-16.00 20.74-8.96L20.74-8.96Q20.21 0 10.72 0.53L10.72 0.53Q1.93-0.18 1.41-7.73L1.41-7.73Q1.58-12.66 4.22-14.24L4.22-14.24Q4.92-13.89 5.63-12.83L5.63-12.83Q5.98-12.30 6.15-11.95L6.15-11.95Q8.61-11.95 9.49-10.55L9.49-10.55Q8.96-10.55 8.44-9.84L8.44-9.84Q8.44-9.84 8.44-9.32L8.44-9.32Q8.26-8.96 8.26-8.79L8.26-8.79Q8.26-6.15 11.07-5.98L11.07-5.98Q16.35-6.50 16.52-10.72L16.52-10.72Q16.52-13.71 10.90-15.12L10.90-15.12Q3.52-17.05 3.52-22.15L3.52-22.15Q4.04-28.48 11.60-29.36L11.60-29.36Q17.58-28.83 19.34-26.37Z" transform="translate(-1.40625, 29.35546875)"></path></g></g><g transform="translate(23.3359375, 0)"><g fill="#333" transform="translate(0,3)"><path d="M21.27-5.10L21.27-5.10L21.97-4.39Q21.97-4.39 22.15-3.87L22.15-3.87Q22.32-3.52 22.32-3.34L22.32-3.34Q22.15 0.70 14.06 0.88L14.06 0.88Q2.11 0 1.05-12.66L1.05-12.66Q1.76-27.77 14.24-28.30L14.24-28.30Q22.32-27.42 22.68-24.08L22.68-24.08Q22.68-23.03 21.45-22.32L21.45-22.32Q20.57-21.80 20.21-21.45L20.21-21.45Q19.69-20.57 19.34-18.98L19.34-18.98Q18.81-17.58 18.46-17.05L18.46-17.05Q17.93-16.52 17.05-16.52L17.05-16.52Q16.17-16.52 15.82-17.93L15.82-17.93Q15.64-19.16 14.94-19.51L14.94-19.51Q14.24-20.04 12.48-20.04L12.48-20.04Q6.33-19.51 5.63-12.30L5.63-12.30Q6.50-3.34 14.94-2.64L14.94-2.64Q18.28-2.64 18.81-4.75L18.81-4.75Q19.34-5.10 20.21-5.27L20.21-5.27Q20.39-5.27 20.74-5.27L20.74-5.27Q21.09-5.10 21.27-5.10Z" transform="translate(-1.0546875, 29.35546875)"></path></g></g><g transform="translate(48.95703125, 0)"><g fill="#333" transform="translate(0,3)"><path d="M28.65-13.71L28.65-13.71Q27.60 0 15.47 0.70L15.47 0.70Q2.99 0.18 2.29-13.71L2.29-13.71Q3.69-27.42 15.47-28.48L15.47-28.48Q27.25-27.42 28.65-13.71ZM23.91-16.70L23.91-16.70Q23.03-24.79 15.47-25.49L15.47-25.49Q7.91-24.79 7.03-16.70L7.03-16.70Q7.91-8.44 15.47-7.73L15.47-7.73Q22.85-8.61 23.91-16.70Z" transform="translate(-2.28515625, 29.35546875)"></path></g></g><g transform="translate(79.32421875, 0)" mask="url(#ae19e9730d95cd6f66eba900cb035b9b)"><rect fill="#333" x="0" y="0" width="28.8515625" height="36.234375"></rect> <g fill="white" transform="translate(3.0007810592651367,3)"><path d="M6.33-3.87L6.33-3.87L6.33-23.20Q6.33-23.73 6.15-24.08L6.15-24.08L5.80-24.61L5.10-24.61Q4.75-24.61 4.04-24.43L4.04-24.43Q3.52-24.26 3.34-24.26L3.34-24.26Q1.23-24.26 1.23-25.66L1.23-25.66Q1.23-28.65 8.26-28.65L8.26-28.65Q23.38-27.95 24.08-14.06L24.08-14.06Q22.15-1.05 7.38 0.88L7.38 0.88Q4.57 0.88 4.57-0.18L4.57-0.18Q4.57-0.35 5.10-1.05L5.10-1.05Q6.33-2.46 6.33-3.87ZM10.20-22.15L10.20-22.15L10.20-11.43Q10.02-9.32 11.60-9.32L11.60-9.32Q18.28-10.02 18.98-17.75L18.98-17.75Q18.28-24.26 12.30-24.96L12.30-24.96Q10.02-25.14 10.20-22.15Z" transform="translate(-1.23046875, 29.35546875)"></path></g></g><g transform="translate(112.17578125, 0)"><g fill="#333" transform="translate(0,3)"><path d="M15.82-16.88L15.82-16.88L5.27-16.88Q4.92-15.82 4.92-14.41L4.92-14.41Q4.39-6.86 13.89-7.73L13.89-7.73Q15.29-7.73 18.28-8.61L18.28-8.61Q20.74-9.49 21.80-9.49L21.80-9.49Q21.97-9.49 23.03-8.96L23.03-8.96Q23.03-8.79 23.38-8.09L23.38-8.09Q23.38-7.56 23.03-6.68L23.03-6.68Q22.68-5.80 22.68-5.10L22.68-5.10Q22.68-4.57 23.20-3.87L23.20-3.87Q23.55-2.99 23.55-2.46L23.55-2.46Q23.38 0.70 14.06 0.70L14.06 0.70Q5.80 0.35 3.34-1.23L3.34-1.23Q1.41-3.52 1.05-14.77L1.05-14.77Q1.05-27.42 5.63-28.30L5.63-28.30Q7.03-28.48 10.02-28.30L10.02-28.30Q11.25-28.30 11.95-28.30L11.95-28.30Q13.01-28.30 15.12-28.65L15.12-28.65Q17.23-28.83 18.11-28.83L18.11-28.83Q20.74-28.83 20.74-27.25L20.74-27.25Q20.74-24.08 9.49-24.61L9.49-24.61Q8.61-24.61 8.26-24.61L8.26-24.61Q5.27-24.43 5.10-20.92L5.10-20.92Q5.10-20.39 5.27-19.86L5.27-19.86Q5.63-19.86 7.03-20.04L7.03-20.04Q17.93-20.92 17.93-18.46L17.93-18.46Q17.93-16.88 15.82-16.88Z" transform="translate(-1.0546875, 29.35546875)"></path></g></g></g> <g class="tp-slogan" fill="transparent" transform="translate(46.657854080200195,43.234375)"><!----> <!----> <!----> <g></g></g></g><mask id="ae19e9730d95cd6f66eba900cb035b9b"><rect x="0" y="0" width="28.8515625" height="36.234375" fill="white"></rect></mask></svg>